<svg xmlns="http://www.w3.org/2000/svg" viewBox="0 0 512 512"><g data-name="Camera"><path d="M331.872 218.488h25.767v13.439h-25.767z"/><path d="M255.995 61.677c-107.32 0-194.32 87.005-194.32 194.325 0 107.316 87 194.32 194.32 194.32s194.33-87.004 194.33-194.32c0-107.32-87.01-194.325-194.33-194.325zm124.037 279.314a21.71 21.71 0 0 1-21.713 21.709H152.003a21.715 21.715 0 0 1-21.722-21.709V210.108a21.72 21.72 0 0 1 21.722-21.718H167.2v-32.77a13.031 13.031 0 0 1 13.032-13.036h51.815a13.025 13.025 0 0 1 13.031 13.036v32.77h113.24a21.715 21.715 0 0 1 21.714 21.718z"/><path d="M255.156 217.106a57.513 57.513 0 1 0 57.516 57.51 57.514 57.514 0 0 0-57.516-57.51zm0 91.303a33.79 33.79 0 1 1 33.797-33.792 33.782 33.782 0 0 1-33.797 33.792z"/></g></svg>