<svg xmlns="http://www.w3.org/2000/svg" xml:space="preserve" width="2048" height="2048" style="shape-rendering:geometricPrecision;text-rendering:geometricPrecision;image-rendering:optimizeQuality;fill-rule:evenodd;clip-rule:evenodd"><defs><style>.fil0,.fil1{fill:#424242}.fil0{fill-rule:nonzero}</style></defs><g id="Layer_x0020_1"><g id="_333740232"><path id="_333740736" class="fil0" d="M1431.14 1164.06 977.38 689.937l22.055-21.216-22.17 21.216c-11.716-12.243-11.29-31.669.954-43.384a30.555 30.555 0 0 1 19.015-8.438l759.817-106.906-.01-.071c16.78-2.36 32.3 9.33 34.66 26.11a30.564 30.564 0 0 1-4.25 20.352l-305.478 581.241.062.033c-7.883 15.002-26.437 20.77-41.437 12.886a30.6 30.6 0 0 1-9.457-7.7zm-368.298-473.345 384.721 401.986 258.861-492.539-643.582 90.553z"/><path id="_333741120" class="fil1" d="m1498.25 1123.11 77.28 549.21-91.05 12.59-77.27-549.2z"/><path id="_333740616" class="fil1" d="m1607 1698.69-145.596 20.486c-25.143 3.539-48.378-14.087-51.854-39.22-3.472-25.107 14.108-48.285 39.19-51.814l145.596-20.487c25.143-3.537 48.378 14.087 51.854 39.221 3.473 25.108-14.108 48.286-39.19 51.814z"/><path id="_333741168" class="fil1" d="M1599.54 737.58c-27.027 8.31-54.078 17.73-81.237 27.19-90.75 31.61-182.653 63.612-283.913 60.814l205.853 215.092 159.298-303.096z"/><path id="_333740880" class="fil0" d="M540.71 965.033 259.084 372.262l27.607-13.204-27.716 13.167c-7.272-15.306-.758-33.611 14.55-40.884a30.562 30.562 0 0 1 20.703-2.029l754.884 137.477.013-.07c16.671 3.038 27.727 19.015 24.69 35.686a30.561 30.561 0 0 1-10.434 17.984L590.604 976.065l.048.05c-12.2 11.761-31.628 11.403-43.388-.799a30.62 30.62 0 0 1-6.555-10.283zM339.966 399.877l238.775 502.582 400.628-386.136-639.403-116.446z"/><path id="_333739848" class="fil1" d="m617.301 947.268-99.369 545.642-90.386-16.68 99.369-545.64z"/><path id="_333740064" class="fil1" d="m539.509 1527.85-144.651-26.342c-24.98-4.55-41.493-28.588-36.888-53.538 4.6-24.926 28.578-41.4 53.497-36.861l144.65 26.343c24.981 4.548 41.494 28.586 36.889 53.538-4.6 24.926-28.578 41.398-53.497 36.86z"/><path id="_333739752" class="fil1" d="M834.692 613.152c-28.27-.612-56.91-.177-85.667.262-96.085 1.466-193.389 2.941-288.632-31.561L588.156 850.77l246.535-237.618z"/></g></g><path style="fill:none" d="M0 0h2048v2048H0z"/></svg>