<svg version="1.1" id="Layer_1" xmlns="http://www.w3.org/2000/svg" x="0" y="0" viewBox="0 0 32 32" style="enable-background:new 0 0 32 32" xml:space="preserve"><style></style><path d="M11.91 23.154a1 1 0 0 1-1-1V9.846c0-.467.323-.872.778-.976L22.56 6.41a1.003 1.003 0 0 1 1.22.975v12.307a1 1 0 1 1-2 0V8.637l-8.87 2.008v11.51a1 1 0 0 1-1 1z"/><path d="M9.448 25.615a3.466 3.466 0 0 1-3.462-3.46c0-1.91 1.553-3.463 3.462-3.463s3.461 1.553 3.461 3.462a3.465 3.465 0 0 1-3.461 3.461zm0-4.923c-.806 0-1.462.657-1.462 1.462s.656 1.461 1.462 1.461c.805 0 1.461-.655 1.461-1.46s-.656-1.463-1.461-1.463zM20.32 23.154c-1.91 0-3.462-1.552-3.462-3.462s1.553-3.462 3.461-3.462 3.462 1.553 3.462 3.462-1.553 3.462-3.462 3.462zm0-4.924c-.806 0-1.462.657-1.462 1.462s.656 1.462 1.461 1.462 1.462-.656 1.462-1.462-.656-1.462-1.462-1.462z"/><g><path d="M30 31H2a1 1 0 0 1-1-1V2a1 1 0 0 1 1-1h28a1 1 0 0 1 1 1v28a1 1 0 0 1-1 1zM3 29h26V3H3v26z"/></g></svg>