<svg xmlns="http://www.w3.org/2000/svg" width="128" height="128" xml:space="preserve"><path fill="#282D33" d="M49.533 127.723H11.631V53.604c0-7.777 4.453-14.677 11.457-17.94V9.469h16.986v26.194c7.005 3.266 11.458 10.165 11.458 17.94v5.652h-4v-5.652c0-6.572-3.996-12.363-10.179-14.754l-1.279-.494V13.469h-8.986v24.888l-1.279.494c-6.183 2.388-10.178 8.179-10.178 14.753v70.119h33.901v4z"/><path fill="#282D33" d="M21.714 19.718h19.734v4H21.714zM40.231 110.494H20.733V56.012h19.498v4H24.733v46.482h15.498z"/><g><path fill="#282D33" d="M101.59 80.68 90.064 63.575H56.91v-4h34.219l1.658.883 12.119 17.987z"/><path fill="#282D33" d="M103.057 82.479H68.83v-4h26.941l-12.058-7.162 2.043-3.439 18.322 10.881z"/><path fill="#282D33" d="M104.879 127.723H77.205V78.479h27.674v49.244zm-23.674-4h19.674V82.479H81.205v41.244z"/><path fill="#282D33" d="M81.205 127.723h-38.22V78.479h38.22v49.244zm-34.22-4h30.22V82.479h-30.22v41.244zM93.129 63.575H54.91V50.127h38.219v13.448zm-34.219-4h30.219v-5.448H58.91v5.448z"/><path fill="#282D33" d="m80.428 80.672-3.297-2.266 10.197-14.831H57.962L46.211 80.672l-3.297-2.266 12.347-17.964 1.649-.867h34.219l1.648 3.133z"/></g><g><path fill="#282D33" d="M61.694 112.16c-5.419 0-9.829-4.388-9.829-9.781s4.409-9.781 9.829-9.781c5.421 0 9.829 4.388 9.829 9.781s-4.408 9.781-9.829 9.781zm0-15.562c-3.214 0-5.829 2.594-5.829 5.781s2.615 5.781 5.829 5.781 5.829-2.594 5.829-5.781-2.615-5.781-5.829-5.781z"/></g><g><path fill="#282D33" d="M116.369 128h-4V27.75H45.64v-4h70.729z"/><path fill="#282D33" d="M60.967 36.742h-4V19.635C56.967 8.808 65.822 0 76.709 0h6.898c10.887 0 19.742 8.808 19.742 19.635v17.106h-4V19.635C99.35 11.014 92.289 4 83.607 4h-6.898c-8.68 0-15.742 7.014-15.742 15.635v17.107z"/></g></svg>