<svg xmlns="http://www.w3.org/2000/svg" xml:space="preserve" width="655.359" height="655.359" style="shape-rendering:geometricPrecision;text-rendering:geometricPrecision;image-rendering:optimizeQuality;fill-rule:evenodd;clip-rule:evenodd" viewBox="0 0 6.827 6.827"><defs><style>.fil0{fill:none}.fil1,.fil2{fill:#424242;fill-rule:nonzero}.fil2{fill:#ba68c8}</style></defs><g id="Layer_x0020_1"><g id="_488777392"><path id="_488777776" class="fil0" d="M0 0h6.827v6.827H0z"/><path id="_488777800" class="fil0" d="M.853.853h5.12v5.12H.853z"/></g><path class="fil1" d="M1.757 3.123c-.006 0-.024 0 0 0zM1.757 3.123c.004 0 .003 0 0 0zM.854 4.002c0-.003 0-.002 0 0z"/><path class="fil2" d="M4.801 5.085a.795.795 0 0 1-.223.487c-.153.149-.376.226-.67.226H1.756c-.295-.002-.52-.08-.673-.23-.154-.153-.231-.375-.23-.664v-.902c0 .007 0 .023 0 0 0-.284.077-.5.23-.651.152-.15.372-.226.66-.228H3.908c.286 0 .506.071.66.214a.767.767 0 0 1 .224.44l.95-.58.056-.035.176-.108v2.712L5.8 5.664l-.055-.032-.943-.547z"/><path d="M3.35 1.07c.097-.028.199-.042.307-.042.296 0 .56.116.751.306.19.19.305.453.305.75 0 .299-.114.56-.302.748-.19.19-.454.304-.753.308h-.002a1.055 1.055 0 0 1-.979-.662 1.035 1.035 0 0 1 .312-1.215.981.981 0 0 1 .36-.193z" style="fill:#ce93d8;fill-rule:nonzero"/><path class="fil2" d="M1.492 2.928a.734.734 0 0 1-.217-.537v-.013a.75.75 0 0 1 .221-.534.772.772 0 0 1 .53-.224h.016a.762.762 0 0 1 .768.771.748.748 0 0 1-.222.539.771.771 0 0 1-.544.228H2.04a.798.798 0 0 1-.548-.23z"/></g></svg>